<?xml version="1.0" standalone="no"?><!DOCTYPE svg PUBLIC "-//W3C//DTD SVG 1.1//EN" "http://www.w3.org/Graphics/SVG/1.1/DTD/svg11.dtd"><svg class="icon" width="200px" height="200.00px" viewBox="0 0 1024 1024" version="1.1" xmlns="http://www.w3.org/2000/svg"><path d="M507.2896 936.192a427.3152 427.3152 0 1 1 427.264-427.3152 427.776 427.776 0 0 1-427.264 427.3152z m0-793.1392a365.8752 365.8752 0 1 0 365.824 365.824 366.2848 366.2848 0 0 0-365.824-365.824z" fill="#474747" /><path d="M512 786.944c-46.6432 0-91.5456-18.7392-120.2176-50.1248A129.792 129.792 0 0 1 358.4 634.88a5.12 5.12 0 0 1 0-0.8704c15.36-123.7504 128-227.584 133.12-231.936a30.72 30.72 0 0 1 39.168-1.7408c45.5168 34.4064 136.6016 146.2784 141.2096 228.7104a141.568 141.568 0 0 1-40.192 105.4208A168.0896 168.0896 0 0 1 512 786.944z m-92.16-146.1248a68.7616 68.7616 0 0 0 17.5616 54.5792c17.2032 18.8416 45.1584 30.1056 74.8032 30.1056a107.008 107.008 0 0 0 74.9056-33.28 80.0256 80.0256 0 0 0 23.4496-59.8016c-2.6624-48.3328-57.1392-125.2352-96.9728-165.2736-30.0544 32.4096-84.9408 100.7616-93.7472 173.6704z" fill="#336BFF" /><path d="M512 301.312m-42.9568 0a42.9568 42.9568 0 1 0 85.9136 0 42.9568 42.9568 0 1 0-85.9136 0Z" fill="#336BFF" /></svg>