<?xml version="1.0" standalone="no"?><!DOCTYPE svg PUBLIC "-//W3C//DTD SVG 1.1//EN" "http://www.w3.org/Graphics/SVG/1.1/DTD/svg11.dtd"><svg class="icon" width="200px" height="200.00px" viewBox="0 0 1024 1024" version="1.1" xmlns="http://www.w3.org/2000/svg"><path d="M512 512m-429 0a429 429 0 1 0 858 0 429 429 0 1 0-858 0Z" fill="#F7931E" /><path d="M801.12 437.94q-4.35-13.8-10-27.22a305.9 305.9 0 0 0-563.39 0q-5.69 13.44-10 27.26a74.31 74.31 0 0 0-57.63 72.41v47a74.3 74.3 0 0 0 74.3 74.3 29.79 29.79 0 0 0 29.78-29.78v-144a21.8 21.8 0 0 0-13-20 274.27 274.27 0 0 1 516.66 0.07 21.81 21.81 0 0 0-12.89 19.89v144a29.79 29.79 0 0 0 29.78 29.78 74.3 74.3 0 0 0 74.3-74.3v-47a74.31 74.31 0 0 0-57.91-72.41z" fill="#FFFFFF" /><path d="M509.45 296.34c-104 0-192.2 68-222.5 162v143.6c30.3 94 118.45 161.94 222.5 161.94h209a13.22 13.22 0 0 0 13.26-13.15L687 682.09a232.75 232.75 0 0 0 44.84-79.89V458.05c-30.35-93.82-118.43-161.71-222.39-161.71z m5.94 388c-75.47 0-136.87-61.4-136.87-136.88a22.66 22.66 0 1 1 45.32 0 91.55 91.55 0 0 0 183.1 0 22.67 22.67 0 0 1 45.33 0c0 75.54-61.41 136.89-136.88 136.89z" fill="#FFFFFF" /></svg>