<?xml version="1.0" standalone="no"?><!DOCTYPE svg PUBLIC "-//W3C//DTD SVG 1.1//EN" "http://www.w3.org/Graphics/SVG/1.1/DTD/svg11.dtd"><svg class="icon" width="200px" height="200.00px" viewBox="0 0 1024 1024" version="1.1" xmlns="http://www.w3.org/2000/svg"><path d="M514.9696 512m-453.2224 0a453.2224 453.2224 0 1 0 906.4448 0 453.2224 453.2224 0 1 0-906.4448 0Z" fill="#14C9A6" /><path d="M514.9696 58.7776A453.2224 453.2224 0 0 0 148.48 778.8544 453.2224 453.2224 0 0 0 781.824 145.664a451.072 451.072 0 0 0-266.8544-86.8864z" fill="#26D3B2" /><path d="M758.6304 305.4592a451.3792 451.3792 0 0 0-47.5136-202.0864A453.2224 453.2224 0 0 0 109.312 714.0352a453.1712 453.1712 0 0 0 649.3184-408.576z" fill="#3ADDBE" /><path d="M61.7472 512a451.1744 451.1744 0 0 0 14.2336 112.64A444.8768 444.8768 0 0 0 617.8816 70.5536 453.4784 453.4784 0 0 0 61.7472 512z" fill="#4EEACC" /><path d="M791.1936 437.0432L721.92 277.3504a56.32 56.32 0 0 0-51.8656-34.048h-87.04v-36.4032a17.7664 17.7664 0 0 0-17.8176-17.7664H465.92a17.7664 17.7664 0 0 0-17.7664 17.7664v36.4032H356.864a56.32 56.32 0 0 0-52.48 35.5328L241.6128 435.6608a70.656 70.656 0 0 0-57.0368 69.2736v152.2176a31.232 31.232 0 0 0 31.232 31.1808h22.784v59.8528a49.3056 49.3056 0 0 0 98.56 0v-59.8528h355.6864v59.8528a49.2544 49.2544 0 0 0 98.5088 0v-59.8528h20.0192a31.1808 31.1808 0 0 0 31.1808-31.1808V504.9344a70.5536 70.5536 0 0 0-51.3536-67.8912z m-509.3376 144.1792a47.104 47.104 0 1 1 47.104-47.104 47.0528 47.0528 0 0 1-47.104 47.104z m15.7184-146.8928l54.5792-136.3968a5.12 5.12 0 0 1 4.7104-3.1744h313.2928a5.12 5.12 0 0 1 4.6592 3.072l59.136 136.4992z m444.5184 143.36a45.312 45.312 0 1 1 45.2608-45.2608 45.2608 45.2608 0 0 1-45.2608 45.4144z" fill="#B2EADF" /><path d="M721.92 277.3504a56.32 56.32 0 0 0-51.8656-34.048h-87.04v-13.6704l-65.024 65.1264h152.1664a5.12 5.12 0 0 1 4.6592 3.072l28.6208 65.9968 38.9632-39.168z" fill="#E9F4F0" /><path d="M337.152 748.1856v-18.1248l-64.8192 64.8704a49.9712 49.9712 0 0 0 15.36 2.5088 49.3056 49.3056 0 0 0 49.4592-49.2544z" fill="#D3EFE9" /><path d="M565.2992 189.1328H465.92a17.7664 17.7664 0 0 0-17.7664 17.7664v36.4032H356.864a56.32 56.32 0 0 0-52.48 35.5328L241.6128 435.6608a70.656 70.656 0 0 0-57.0368 69.2736v123.2384l62.464-62.464a47.0016 47.0016 0 0 1 66.56-66.56l64.8192-64.8192H297.5744l54.5792-136.3968a5.12 5.12 0 0 1 4.7104-3.1744h161.1264l65.1264-65.1264v-22.7328a17.7664 17.7664 0 0 0-17.8176-17.7664z" fill="#FFFFFF" /><path d="M378.4192 434.3296L313.4464 499.3024a47.0016 47.0016 0 1 1-66.56 66.56l-62.464 62.464v28.9792a31.232 31.232 0 0 0 31.232 31.1808h22.9376v59.8528a49.3056 49.3056 0 0 0 33.7408 46.7456l64.8192-64.8704v-41.728H378.88l254.0032-254.0032z" fill="#E9F4F0" /><path d="M742.0928 577.8432a45.312 45.312 0 1 1 45.2608-45.2608v1.8432l51.6608-51.712a70.656 70.656 0 0 0-47.7696-45.6704l-48.64-112.64-39.1168 39.168 30.72 70.5024h-101.3248L378.88 688.3328h254.464l110.592-110.592z" fill="#D3EFE9" /></svg>