<?xml version="1.0" standalone="no"?><!DOCTYPE svg PUBLIC "-//W3C//DTD SVG 1.1//EN" "http://www.w3.org/Graphics/SVG/1.1/DTD/svg11.dtd"><svg class="icon" width="200px" height="200.00px" viewBox="0 0 1024 1024" version="1.1" xmlns="http://www.w3.org/2000/svg"><path d="M513.024 519.3216m-453.2224 0a453.2224 453.2224 0 1 0 906.4448 0 453.2224 453.2224 0 1 0-906.4448 0Z" fill="#F4566C" /><path d="M513.024 66.0992a453.2224 453.2224 0 0 0-366.336 720.0768A453.2224 453.2224 0 0 0 779.8784 152.9856a451.072 451.072 0 0 0-266.8544-86.8864z" fill="#F56677" /><path d="M756.6848 312.7808a451.1232 451.1232 0 0 0-47.5136-202.0352A453.2224 453.2224 0 0 0 107.52 721.408a453.2736 453.2736 0 0 0 649.1648-408.6272z" fill="#F67C85" /><path d="M59.8016 519.3216a451.8912 451.8912 0 0 0 14.2336 112.64 445.0304 445.0304 0 0 0 559.616-430.08 442.2144 442.2144 0 0 0-17.7664-124.2112 453.4272 453.4272 0 0 0-556.0832 441.6512z" fill="#F78B90" /><path d="M842.4448 448.3072h-146.8928a63.7952 63.7952 0 0 0 0 127.5392h146.8928a11.4176 11.4176 0 0 0 11.4176-11.4176V459.6736a11.3664 11.3664 0 0 0-11.4176-11.3664z m-139.2128 93.0816a30.3616 30.3616 0 0 1-29.696-30.72 30.208 30.208 0 0 1 60.3648 0.8704 30.3616 30.3616 0 0 1-30.6688 29.8496z" fill="#F6D2D5" /><path d="M692.992 409.1904h129.1776v-58.368a99.2768 99.2768 0 0 0-100.5568-97.9968H299.9808A99.2768 99.2768 0 0 0 199.68 350.8224v327.68a99.2256 99.2256 0 0 0 100.5568 97.9456h421.632a99.2256 99.2256 0 0 0 100.5568-97.9456v-67.2256h-129.4336c-57.2928 0-103.7312-45.2608-103.7312-101.0176a102.4 102.4 0 0 1 103.7312-101.0688z m-185.856-27.648a22.528 22.528 0 0 1-22.528 22.528H315.3408a22.528 22.528 0 0 1-22.528-22.528 22.528 22.528 0 0 1 22.528-22.528h169.2672a22.528 22.528 0 0 1 22.528 22.528z" fill="#F6D2D5" /><path d="M199.68 350.8224v209.2544l155.7504-156.0064h-40.0896a22.528 22.528 0 0 1-22.528-22.528 22.528 22.528 0 0 1 22.528-22.528h85.1456L506.88 252.8256H299.9808A99.2768 99.2768 0 0 0 199.68 350.8224z" fill="#FFFFFF" /><path d="M506.88 252.8256L400.4864 359.0144h84.1216a22.528 22.528 0 0 1 22.528 22.528 22.528 22.528 0 0 1-22.528 22.528H355.4304L199.68 560.0768v118.528a97.792 97.792 0 0 0 58.5728 88.9344l505.6512-505.6512a102.656 102.656 0 0 0-42.0352-9.0624z" fill="#FEF8F8" /><path d="M842.4448 448.3072h-146.8928a63.7952 63.7952 0 0 0 0 127.5392h20.48l127.488-127.488z m-139.2128 93.0816a30.3616 30.3616 0 0 1-29.696-30.72 30.208 30.208 0 0 1 60.3648 0.8704 30.3616 30.3616 0 0 1-30.6688 29.8496z" fill="#F9E1E3" /><path d="M589.2608 510.2592a102.4 102.4 0 0 1 103.7312-101.0688h129.1776v-58.368a97.8432 97.8432 0 0 0-58.5216-88.9344l-505.6512 505.6512a102.4 102.4 0 0 0 41.984 9.0112h215.04L680.96 610.56a102.0416 102.0416 0 0 1-91.6992-100.3008z" fill="#F9E1E3" /></svg>