<?xml version="1.0" standalone="no"?><!DOCTYPE svg PUBLIC "-//W3C//DTD SVG 1.1//EN" "http://www.w3.org/Graphics/SVG/1.1/DTD/svg11.dtd"><svg class="icon" width="200px" height="200.00px" viewBox="0 0 1024 1024" version="1.1" xmlns="http://www.w3.org/2000/svg"><path d="M61.44 512.82a453.222 453.222 0 1 0 906.445 0 453.222 453.222 0 1 0-906.445 0z" fill="#EE4F3E" /><path d="M514.816 59.7c-250.317 0-453.222 202.905-453.222 453.222 0 99.788 32.256 192 86.886 266.854 74.854 54.63 167.066 86.886 266.854 86.886 250.317 0 453.223-202.905 453.223-453.222 0-99.789-32.256-192-86.887-266.854-74.854-54.63-167.116-86.887-266.854-86.887z" fill="#EA623D" /><path d="M758.477 306.38c0-72.6-17.152-141.209-47.514-202.034-59.34-28.57-125.85-44.596-196.096-44.596-250.317 0-453.222 202.906-453.222 453.223 0 72.601 17.152 141.21 47.513 202.035 59.341 28.57 125.85 44.595 196.096 44.595 250.317 0 453.223-202.905 453.223-453.222z" fill="#F37140" /><path d="M61.594 512.922c0 38.912 4.966 76.646 14.233 112.64a443.597 443.597 0 0 0 114.688 15.052c245.709 0 444.928-199.219 444.928-444.928 0-43.161-6.246-84.787-17.715-124.21-33.024-7.68-67.482-11.777-102.86-11.777-250.369 0-453.274 202.906-453.274 453.223z" fill="#F47847" /><path d="M832.973 478.771c9.216-3.737 15.104-12.8 15.104-22.733V349.645c0-29.235-23.706-52.941-52.941-52.941h-5.683v-23.091c0-24.064-19.507-43.571-43.571-43.571H286.208a43.571 43.571 0 0 0-43.571 43.57v23.092h-5.683c-29.236 0-52.941 23.706-52.941 52.94v105.729c0 10.24 6.656 19.046 16.281 22.528 20.941 7.629 36.967 25.293 42.343 47.206v32.103a67.415 67.415 0 0 1-42.343 47.206c-9.625 3.482-16.281 12.288-16.281 22.528v105.728c0 29.235 23.705 52.94 52.94 52.94h558.183c29.235 0 52.94-23.705 52.94-52.94V626.278c0-9.932-5.887-19.046-15.103-22.732-24.679-9.984-42.138-34.1-42.138-62.362s17.408-52.429 42.138-62.413zM670.259 652.237H361.78c-16.947 0-30.72-13.773-30.72-30.72s13.773-30.72 30.72-30.72H670.31c16.948 0 30.72 13.773 30.72 30.72s-13.772 30.72-30.77 30.72z m0-176.435H361.78c-16.947 0-30.72-13.773-30.72-30.72s13.773-30.72 30.72-30.72H670.31c16.948 0 30.72 13.772 30.72 30.72-0.05 16.947-13.772 30.72-30.77 30.72z" fill="#EAD4CC" /><path d="M242.586 273.613v23.091h-5.684c-29.235 0-52.94 23.706-52.94 52.94v105.729c0 10.24 6.656 19.046 16.281 22.528 17.357 6.349 31.283 19.66 38.605 36.557l284.416-284.416H286.208c-24.064 0-43.622 19.507-43.622 43.57z" fill="#FFFFFF" /><path d="M745.83 230.042H523.315L238.9 514.458c1.485 3.43 2.816 6.963 3.738 10.65v32.102a67.415 67.415 0 0 1-42.343 47.206c-9.625 3.482-16.281 12.288-16.281 22.528v105.728c0 29.235 23.705 52.94 52.94 52.94h22.221L392.5 652.289h-30.72c-16.947 0-30.72-13.773-30.72-30.72s13.773-30.72 30.72-30.72h92.16l115.047-115.046H361.779c-16.947 0-30.72-13.773-30.72-30.72s13.773-30.72 30.72-30.72h268.595l156.16-156.16c-6.246-16.487-22.067-28.16-40.704-28.16z" fill="#EFEFEF" /><path d="M550.554 785.613l240.435-240.435a52.051 52.051 0 0 1-0.154-3.994c0-28.262 17.46-52.429 42.138-62.362 9.216-3.737 15.104-12.8 15.104-22.732V349.645c0-29.235-23.706-52.941-52.941-52.941h-5.683v-23.091c0-5.427-1.024-10.65-2.867-15.463l-156.16 156.16h39.884c16.948 0 30.72 13.773 30.72 30.72s-13.772 30.72-30.72 30.72H568.986L453.939 590.797H670.31c16.948 0 30.72 13.773 30.72 30.72s-13.772 30.72-30.72 30.72H392.448L259.123 785.562h291.43z" fill="#EFE1DA" /></svg>